<svg xmlns="http://www.w3.org/2000/svg" viewBox="0 0 800 220" width="100%">
<defs><style>
@keyframes tw{0%,100%{opacity:.9}50%{opacity:.1}}
@keyframes fa{0%{transform:translate(0,0);opacity:1}100%{transform:translate(14px,230px);opacity:0}}
@keyframes fb{0%{transform:translate(0,0);opacity:.9}100%{transform:translate(-12px,230px);opacity:0}}
@keyframes fc{0%{transform:translate(0,0);opacity:1}100%{transform:translate(22px,230px);opacity:0}}
</style></defs>

<rect width="800" height="220" fill="#010409"/>

<!-- Stars -->
<circle cx="50" cy="20" r="1.5" fill="#fff" style="animation:tw 2.1s ease-in-out 0s infinite;opacity:.7"/>
<circle cx="130" cy="40" r="1" fill="#fff" style="animation:tw 1.8s ease-in-out .3s infinite;opacity:.5"/>
<circle cx="200" cy="15" r="1.5" fill="#fff" style="animation:tw 2.5s ease-in-out .7s infinite;opacity:.8"/>
<circle cx="280" cy="55" r="1" fill="#fff" style="animation:tw 1.6s ease-in-out 1.1s infinite;opacity:.6"/>
<circle cx="350" cy="25" r="2" fill="#fff" style="animation:tw 3.0s ease-in-out .4s infinite;opacity:.9"/>
<circle cx="420" cy="45" r="1" fill="#fff" style="animation:tw 2.2s ease-in-out .9s infinite;opacity:.5"/>
<circle cx="490" cy="18" r="1.5" fill="#fff" style="animation:tw 1.9s ease-in-out .2s infinite;opacity:.7"/>
<circle cx="560" cy="38" r="1" fill="#fff" style="animation:tw 2.7s ease-in-out 1.5s infinite;opacity:.6"/>
<circle cx="630" cy="12" r="1.5" fill="#fff" style="animation:tw 2.3s ease-in-out .6s infinite;opacity:.8"/>
<circle cx="720" cy="48" r="1" fill="#fff" style="animation:tw 1.7s ease-in-out 1.2s infinite;opacity:.5"/>
<circle cx="770" cy="22" r="1.5" fill="#fff" style="animation:tw 2.4s ease-in-out .8s infinite;opacity:.7"/>
<circle cx="90" cy="80" r="1" fill="#fff" style="animation:tw 2.0s ease-in-out .5s infinite;opacity:.4"/>
<circle cx="170" cy="68" r="1.5" fill="#fff" style="animation:tw 2.6s ease-in-out 1.0s infinite;opacity:.6"/>
<circle cx="240" cy="90" r="1" fill="#fff" style="animation:tw 1.5s ease-in-out .1s infinite;opacity:.5"/>
<circle cx="320" cy="70" r="1.5" fill="#fff" style="animation:tw 2.8s ease-in-out .7s infinite;opacity:.8"/>
<circle cx="400" cy="85" r="1" fill="#fff" style="animation:tw 2.1s ease-in-out 1.3s infinite;opacity:.5"/>
<circle cx="470" cy="65" r="1.5" fill="#fff" style="animation:tw 1.8s ease-in-out .4s infinite;opacity:.7"/>
<circle cx="540" cy="78" r="1" fill="#fff" style="animation:tw 2.5s ease-in-out .9s infinite;opacity:.6"/>
<circle cx="610" cy="55" r="1.5" fill="#fff" style="animation:tw 2.0s ease-in-out .2s infinite;opacity:.8"/>
<circle cx="690" cy="72" r="1" fill="#fff" style="animation:tw 1.9s ease-in-out 1.1s infinite;opacity:.5"/>
<circle cx="750" cy="60" r="1.5" fill="#fff" style="animation:tw 2.7s ease-in-out .6s infinite;opacity:.7"/>
<circle cx="110" cy="110" r="1" fill="#fff" style="animation:tw 2.3s ease-in-out .8s infinite;opacity:.4"/>
<circle cx="190" cy="120" r="1.5" fill="#fff" style="animation:tw 1.6s ease-in-out .3s infinite;opacity:.6"/>
<circle cx="340" cy="112" r="1.5" fill="#fff" style="animation:tw 2.2s ease-in-out .5s infinite;opacity:.7"/>
<circle cx="530" cy="122" r="1.5" fill="#fff" style="animation:tw 2.9s ease-in-out 1.2s infinite;opacity:.6"/>
<circle cx="672" cy="115" r="1.5" fill="#fff" style="animation:tw 1.8s ease-in-out .8s infinite;opacity:.7"/>
<circle cx="782" cy="95" r="1" fill="#fff" style="animation:tw 2.5s ease-in-out .4s infinite;opacity:.4"/>
<circle cx="60" cy="150" r="1" fill="#fff" style="animation:tw 2.0s ease-in-out .6s infinite;opacity:.4"/>
<circle cx="155" cy="160" r="1.5" fill="#fff" style="animation:tw 2.3s ease-in-out .2s infinite;opacity:.5"/>
<circle cx="710" cy="155" r="1" fill="#fff" style="animation:tw 1.9s ease-in-out .9s infinite;opacity:.4"/>
<circle cx="760" cy="140" r="1.5" fill="#fff" style="animation:tw 2.6s ease-in-out .5s infinite;opacity:.6"/>

<!-- Left tree (pixel art sakura) -->
<rect x="20" y="145" width="6" height="6" fill="#ffb7c5"/>
<rect x="26" y="145" width="6" height="6" fill="#ff99bb"/>
<rect x="32" y="145" width="6" height="6" fill="#ffd7e8"/>
<rect x="14" y="151" width="6" height="6" fill="#ff99bb"/>
<rect x="20" y="151" width="6" height="6" fill="#ffb7c5"/>
<rect x="26" y="151" width="6" height="6" fill="#ffd7e8"/>
<rect x="32" y="151" width="6" height="6" fill="#ffb7c5"/>
<rect x="38" y="151" width="6" height="6" fill="#ff99bb"/>
<rect x="8" y="157" width="6" height="6" fill="#ffb7c5"/>
<rect x="14" y="157" width="6" height="6" fill="#ffd7e8"/>
<rect x="20" y="157" width="6" height="6" fill="#ff99bb"/>
<rect x="26" y="157" width="6" height="6" fill="#ffb7c5"/>
<rect x="32" y="157" width="6" height="6" fill="#ffd7e8"/>
<rect x="38" y="157" width="6" height="6" fill="#ffb7c5"/>
<rect x="44" y="157" width="6" height="6" fill="#ff99bb"/>
<rect x="8" y="163" width="6" height="6" fill="#ff99bb"/>
<rect x="14" y="163" width="6" height="6" fill="#ffb7c5"/>
<rect x="20" y="163" width="6" height="6" fill="#ffd7e8"/>
<rect x="26" y="163" width="6" height="6" fill="#ffb7c5"/>
<rect x="32" y="163" width="6" height="6" fill="#ff99bb"/>
<rect x="38" y="163" width="6" height="6" fill="#ffd7e8"/>
<rect x="44" y="163" width="6" height="6" fill="#ffb7c5"/>
<rect x="14" y="169" width="6" height="6" fill="#ffb7c5"/>
<rect x="20" y="169" width="6" height="6" fill="#ff99bb"/>
<rect x="26" y="169" width="6" height="6" fill="#ffb7c5"/>
<rect x="32" y="169" width="6" height="6" fill="#ffd7e8"/>
<rect x="38" y="169" width="6" height="6" fill="#ff99bb"/>
<rect x="20" y="175" width="6" height="6" fill="#ff99bb"/>
<rect x="26" y="175" width="6" height="6" fill="#ffb7c5"/>
<rect x="32" y="175" width="6" height="6" fill="#ff99bb"/>
<!-- trunk left -->
<rect x="26" y="181" width="6" height="8" fill="#4a3040"/>
<rect x="26" y="189" width="6" height="6" fill="#4a3040"/>
<rect x="20" y="195" width="18" height="6" fill="#4a3040"/>
<rect x="16" y="201" width="26" height="5" fill="#3a2535"/>

<!-- Right tree (mirrored) -->
<rect x="768" y="145" width="6" height="6" fill="#ffb7c5"/>
<rect x="762" y="145" width="6" height="6" fill="#ff99bb"/>
<rect x="756" y="145" width="6" height="6" fill="#ffd7e8"/>
<rect x="774" y="151" width="6" height="6" fill="#ff99bb"/>
<rect x="768" y="151" width="6" height="6" fill="#ffb7c5"/>
<rect x="762" y="151" width="6" height="6" fill="#ffd7e8"/>
<rect x="756" y="151" width="6" height="6" fill="#ffb7c5"/>
<rect x="750" y="151" width="6" height="6" fill="#ff99bb"/>
<rect x="780" y="157" width="6" height="6" fill="#ffb7c5"/>
<rect x="774" y="157" width="6" height="6" fill="#ffd7e8"/>
<rect x="768" y="157" width="6" height="6" fill="#ff99bb"/>
<rect x="762" y="157" width="6" height="6" fill="#ffb7c5"/>
<rect x="756" y="157" width="6" height="6" fill="#ffd7e8"/>
<rect x="750" y="157" width="6" height="6" fill="#ffb7c5"/>
<rect x="744" y="157" width="6" height="6" fill="#ff99bb"/>
<rect x="780" y="163" width="6" height="6" fill="#ff99bb"/>
<rect x="774" y="163" width="6" height="6" fill="#ffb7c5"/>
<rect x="768" y="163" width="6" height="6" fill="#ffd7e8"/>
<rect x="762" y="163" width="6" height="6" fill="#ffb7c5"/>
<rect x="756" y="163" width="6" height="6" fill="#ff99bb"/>
<rect x="750" y="163" width="6" height="6" fill="#ffd7e8"/>
<rect x="744" y="163" width="6" height="6" fill="#ffb7c5"/>
<rect x="774" y="169" width="6" height="6" fill="#ffb7c5"/>
<rect x="768" y="169" width="6" height="6" fill="#ff99bb"/>
<rect x="762" y="169" width="6" height="6" fill="#ffb7c5"/>
<rect x="756" y="169" width="6" height="6" fill="#ffd7e8"/>
<rect x="750" y="169" width="6" height="6" fill="#ff99bb"/>
<rect x="768" y="175" width="6" height="6" fill="#ff99bb"/>
<rect x="762" y="175" width="6" height="6" fill="#ffb7c5"/>
<rect x="756" y="175" width="6" height="6" fill="#ff99bb"/>
<!-- trunk right -->
<rect x="762" y="181" width="6" height="8" fill="#4a3040"/>
<rect x="762" y="189" width="6" height="6" fill="#4a3040"/>
<rect x="756" y="195" width="18" height="6" fill="#4a3040"/>
<rect x="752" y="201" width="26" height="5" fill="#3a2535"/>

<!-- Falling petals -->
<g style="animation:fa 4.0s linear -0.5s infinite"><ellipse cx="120" cy="5" rx="6" ry="3" fill="#ffb7c5" transform="rotate(-25 120 5)"/></g>
<g style="animation:fb 5.0s linear -1.2s infinite"><ellipse cx="200" cy="10" rx="7" ry="3.5" fill="#ffd7e8" transform="rotate(20 200 10)"/></g>
<g style="animation:fc 3.5s linear -2.0s infinite"><ellipse cx="290" cy="5" rx="6" ry="3" fill="#ff99bb" transform="rotate(-30 290 5)"/></g>
<g style="animation:fa 4.5s linear -0.8s infinite"><ellipse cx="370" cy="8" rx="7" ry="3.5" fill="#ffb7c5" transform="rotate(15 370 8)"/></g>
<g style="animation:fb 4.0s linear -3.0s infinite"><ellipse cx="450" cy="3" rx="6" ry="3" fill="#ffd7e8" transform="rotate(-20 450 3)"/></g>
<g style="animation:fc 5.0s linear -1.5s infinite"><ellipse cx="530" cy="10" rx="7" ry="3.5" fill="#ffb7c5" transform="rotate(25 530 10)"/></g>
<g style="animation:fa 3.8s linear -2.5s infinite"><ellipse cx="610" cy="5" rx="6" ry="3" fill="#ff99bb" transform="rotate(-15 610 5)"/></g>
<g style="animation:fb 4.2s linear -0.3s infinite"><ellipse cx="690" cy="8" rx="7" ry="3.5" fill="#ffb7c5" transform="rotate(20 690 8)"/></g>
<g style="animation:fc 4.8s linear -1.8s infinite"><ellipse cx="160" cy="8" rx="6" ry="3" fill="#ffd7e8" transform="rotate(-35 160 8)"/></g>
<g style="animation:fa 5.2s linear -2.8s infinite"><ellipse cx="240" cy="4" rx="7" ry="3.5" fill="#ff99bb" transform="rotate(10 240 4)"/></g>
<g style="animation:fb 3.6s linear -1.0s infinite"><ellipse cx="330" cy="10" rx="6" ry="3" fill="#ffb7c5" transform="rotate(-20 330 10)"/></g>
<g style="animation:fc 4.6s linear -3.5s infinite"><ellipse cx="410" cy="5" rx="7" ry="3.5" fill="#ffd7e8" transform="rotate(30 410 5)"/></g>
<g style="animation:fa 3.9s linear -0.7s infinite"><ellipse cx="490" cy="8" rx="6" ry="3" fill="#ff99bb" transform="rotate(-25 490 8)"/></g>
<g style="animation:fb 5.3s linear -2.3s infinite"><ellipse cx="570" cy="4" rx="7" ry="3.5" fill="#ffb7c5" transform="rotate(15 570 4)"/></g>
<g style="animation:fc 4.1s linear -1.3s infinite"><ellipse cx="650" cy="9" rx="6" ry="3" fill="#ffd7e8" transform="rotate(-30 650 9)"/></g>
<g style="animation:fa 4.7s linear -4.0s infinite"><ellipse cx="730" cy="5" rx="7" ry="3.5" fill="#ff99bb" transform="rotate(20 730 5)"/></g>
<g style="animation:fb 3.7s linear -0.9s infinite"><ellipse cx="95" cy="6" rx="6" ry="3" fill="#ffb7c5" transform="rotate(-15 95 6)"/></g>
<g style="animation:fc 5.1s linear -3.2s infinite"><ellipse cx="775" cy="10" rx="7" ry="3.5" fill="#ffd7e8" transform="rotate(25 775 10)"/></g>
<g style="animation:fa 4.3s linear -1.6s infinite"><ellipse cx="75" cy="7" rx="6" ry="3" fill="#ff99bb" transform="rotate(35 75 7)"/></g>
<g style="animation:fb 4.9s linear -2.1s infinite"><ellipse cx="680" cy="6" rx="7" ry="3" fill="#ffb7c5" transform="rotate(-10 680 6)"/></g>

</svg>
